HIERARCHY
ROOT Hips
{
  OFFSET 53.7402 93.6861 9.38568
  CHANNELS 6 Xposition Yposition Zposition Zrotation Xrotation Yrotation
  JOINT spine
  {
    OFFSET 0 7.4756 0.429885
    CHANNELS 3 Zrotation Xrotation Yrotation
    JOINT spine1
    {
      OFFSET 0 9.92301 0
      CHANNELS 3 Zrotation Xrotation Yrotation
      JOINT spine2
      {
        OFFSET 0 9.50804 0
        CHANNELS 3 Zrotation Xrotation Yrotation
        JOINT Neck
        {
          OFFSET 0 24.4111 1.16384
          CHANNELS 3 Zrotation Xrotation Yrotation
          JOINT Head
          {
            OFFSET 0 7.37523 0
            CHANNELS 3 Zrotation Xrotation Yrotation
            End Site
            {
              OFFSET 0 17.8522 -5.88741
            }
          }
        }
        JOINT RightShoulder
        {
          OFFSET -4.00356 10.2679 -0.557468
          CHANNELS 3 Zrotation Xrotation Yrotation
          JOINT RightArm
          {
            OFFSET 0 13.4673 0
            CHANNELS 3 Zrotation Xrotation Yrotation
            JOINT RightArmRoll
            {
              OFFSET 0 6.79858 0
              CHANNELS 3 Zrotation Xrotation Yrotation
              JOINT RightForeArm
              {
                OFFSET 0 19.8018 0
                CHANNELS 3 Zrotation Xrotation Yrotation
                JOINT RightForeArmRoll
                {
                  OFFSET 0 7.62906 0
                  CHANNELS 3 Zrotation Xrotation Yrotation
                  JOINT RightHand
                  {
                    OFFSET 0 15.3098 0
                    CHANNELS 3 Zrotation Xrotation Yrotation
                    End Site
                    {
                      OFFSET 0 0 0
                    }
                  }
                }
              }
            }
          }
        }
        JOINT LeftShoulder
        {
          OFFSET 4.00356 10.2679 -0.557468
          CHANNELS 3 Zrotation Xrotation Yrotation
          JOINT LeftArm
          {
            OFFSET 0 13.4673 0
            CHANNELS 3 Zrotation Xrotation Yrotation
            JOINT LeftArmRoll
            {
              OFFSET 0 6.79858 0
              CHANNELS 3 Zrotation Xrotation Yrotation
              JOINT LeftForeArm
              {
                OFFSET 0 19.8018 0
                CHANNELS 3 Zrotation Xrotation Yrotation
                JOINT LeftForeArmRoll
                {
                  OFFSET 0 7.62906 0
                  CHANNELS 3 Zrotation Xrotation Yrotation
                  JOINT LeftHand
                  {
                    OFFSET 0 15.3098 0
                    CHANNELS 3 Zrotation Xrotation Yrotation
                    End Site
                    {
                      OFFSET 0 0 0
                    }
                  }
                }
              }
            }
          }
        }
      }
    }
  }
  JOINT RightUpLeg
  {
    OFFSET -6.62609 -1.21505 -1.01927
    CHANNELS 3 Zrotation Xrotation Yrotation
    JOINT RightUpLegRoll
    {
      OFFSET 0 17.9517 0
      CHANNELS 3 Zrotation Xrotation Yrotation
      JOINT RightLeg
      {
        OFFSET 0 -22.2304 0
        CHANNELS 3 Zrotation Xrotation Yrotation
        JOINT RightLegRoll
        {
          OFFSET 0 22.3032 0
          CHANNELS 3 Zrotation Xrotation Yrotation
          JOINT RightFoot
          {
            OFFSET 0 18.5636 0
            CHANNELS 3 Zrotation Xrotation Yrotation
            JOINT RightToeBase
            {
              OFFSET 0 15.5183 0
              CHANNELS 3 Zrotation Xrotation Yrotation
              End Site
              {
                OFFSET 0.00657761 7.51538 -0.866263
              }
            }
          }
        }
      }
    }
  }
  JOINT LeftUpLeg
  {
    OFFSET 6.62609 -1.21505 -1.01927
    CHANNELS 3 Zrotation Xrotation Yrotation
    JOINT LeftUpLegRoll
    {
      OFFSET 0 17.9518 0
      CHANNELS 3 Zrotation Xrotation Yrotation
      JOINT LeftLeg
      {
        OFFSET 0 22.2303 0
        CHANNELS 3 Zrotation Xrotation Yrotation
        JOINT LeftLegRoll
        {
          OFFSET 0 22.5093 0
          CHANNELS 3 Zrotation Xrotation Yrotation
          JOINT LeftFoot
          {
            OFFSET 0 18.3575 0
            CHANNELS 3 Zrotation Xrotation Yrotation
            JOINT LeftToeBase
            {
              OFFSET 0 15.5183 0
              CHANNELS 3 Zrotation Xrotation Yrotation
              End Site
              {
                OFFSET -0.029478 7.51539 -0.866263
              }
            }
          }
        }
      }
    }
  }
}
MOTION
Frames: 12
Frame Time: 0.00208333
53.1268 93.5698 9.42212 -0.768368 -3.38869 -0.663571 0.267304 -0.809852 0.282985 0.536129 2.38429 0.523954 0.530394 4.02929 0.515366 -4.85399 7.43387 -2.24057 7.63847 2.61532 -2.7411 70.6822 -1.24577 -2.00851 96.6441 8.17551 18.5798 -4.88719e-007 -2.22184e-007 -5.326e-006 8.36459 1.03585 -0.917728 -1.04998e-005 1.18683e-006 -3.00979 8.0291 -4.95145 0.697677 -75.971 -0.168343 2.05766 -96.0327 12.2129 -21.8456 -2.5096e-007 -1.08658e-006 1.6775e-006 -3.42784 5.68332 1.05235 1.72294e-005 -6.59167e-007 3.00805 -8.02981 -4.95144 -0.697664 -178.13 -1.2606 -1.53434 -180 7.01551e-015 178.942 177.429 7.36256 179.828 4.19982e-007 -4.4788e-006 0.108475 -19.5657 69.2335 20.6233 8.13649 25.2327 -3.48774 -178.635 -1.93548 2.70244 4.54188e-006 -4.6773e-006 -1.0326 -2.37186 -4.957 0.0328321 3.40799e-006 2.75706e-007 -0.0493088 18.4235 67.8209 -19.3789 -8.13649 25.2326 3.48773 
53.1075 93.5693 9.40726 -0.781952 -3.36723 -0.664114 0.269967 -0.807017 0.278196 0.541429 2.38995 0.514845 0.53581 4.03495 0.506161 -4.84076 7.3711 -2.23881 7.62826 2.6362 -2.73614 70.7595 -1.22219 -2.00494 96.5374 8.31011 18.6799 -4.8872e-007 -2.22184e-007 -5.326e-006 8.29802 0.96529 -0.92074 -1.04998e-005 1.18683e-006 -3.00996 8.0291 -4.95145 0.697677 -75.9084 -0.193901 2.0621 -96.0858 12.2841 -21.7573 -2.5096e-007 -1.08658e-006 1.6775e-006 -3.46504 5.74594 1.0582 1.72294e-005 -6.59167e-007 3.00805 -8.02981 -4.95144 -0.697664 -178.111 -1.23948 -1.5497 -180 7.01551e-015 178.943 177.429 7.34146 179.827 4.19982e-007 -4.4788e-006 0.10842 -19.5545 69.2215 20.6113 8.13649 25.2327 -3.48774 -178.618 -1.88328 2.69556 4.54188e-006 -4.6773e-006 -1.0326 -2.37061 -4.99802 0.0326585 3.40799e-006 2.75706e-007 -0.0495768 18.4362 67.8369 -19.3926 -8.13649 25.2326 3.48773 
53.0924 93.5685 9.41454 -0.795522 -3.34487 -0.664268 0.272655 -0.804359 0.273435 0.546781 2.39525 0.505821 0.541276 4.04026 0.497041 -4.82868 7.30873 -2.23729 7.61957 2.65704 -2.73154 70.8357 -1.19808 -2.00101 96.4322 8.44242 18.7757 -4.8872e-007 -2.22184e-007 -5.326e-006 8.23445 0.892224 -0.923245 -1.04998e-005 1.18683e-006 -3.01007 8.0291 -4.95145 0.697677 -75.8464 -0.219357 2.06653 -96.1391 12.3559 -21.6694 -2.5096e-007 -1.08658e-006 1.6775e-006 -3.50192 5.80779 1.06398 1.72294e-005 -6.59167e-007 3.00805 -8.02981 -4.95144 -0.697664 -178.093 -1.21747 -1.56522 -180 7.01552e-015 178.943 177.43 7.32 179.827 4.19982e-007 -4.4788e-006 0.10837 -19.5431 69.2093 20.5991 8.13649 25.2327 -3.48774 -178.601 -1.82974 2.68895 4.54188e-006 -4.6773e-006 -1.0326 -2.3691 -5.03938 0.0324805 3.40799e-006 2.75706e-007 -0.0498208 18.449 67.8531 -19.4065 -8.13649 25.2326 3.48773 
53.0899 93.5717 9.41118 -0.809081 -3.32188 -0.664149 0.275361 -0.801823 0.268695 0.552169 2.40031 0.496856 0.546779 4.04532 0.487979 -4.8174 7.24663 -2.23594 7.61194 2.67783 -2.7272 70.9113 -1.17361 -1.99683 96.328 8.5731 18.8687 -4.88719e-007 -2.22184e-007 -5.326e-006 8.17296 0.8174 -0.925397 -1.04998e-005 1.18683e-006 -3.01013 8.0291 -4.95145 0.697677 -75.7847 -0.244741 2.07095 -96.1924 12.4281 -21.5819 -2.5096e-007 -1.08658e-006 1.6775e-006 -3.53857 5.86911 1.06973 1.72294e-005 -6.59167e-007 3.00805 -8.02981 -4.95144 -0.697664 -178.074 -1.19484 -1.58087 -180 7.01552e-015 178.944 177.43 7.29835 179.826 4.19982e-007 -4.4788e-006 0.108322 -19.5317 69.1971 20.5869 8.13649 25.2327 -3.48774 -178.584 -1.77524 2.68252 4.54188e-006 -4.6773e-006 -1.0326 -2.36741 -5.08098 0.0322995 3.40799e-006 2.75706e-007 -0.0500479 18.462 67.8693 -19.4206 -8.13649 25.2326 3.48773 
53.0688 93.5703 9.36973 -0.822635 -3.29854 -0.663874 0.278076 -0.799357 0.263967 0.557579 2.40523 0.487925 0.552302 4.05024 0.478951 -4.80659 7.1847 -2.23468 7.60492 2.69861 -2.723 70.9864 -1.14892 -1.99249 96.2241 8.70278 18.96 -4.8872e-007 -2.22184e-007 -5.326e-006 8.11267 0.741572 -0.927348 -1.04998e-005 1.18683e-006 -3.01018 8.0291 -4.95145 0.697677 -75.7232 -0.270084 2.07536 -96.2459 12.5005 -21.4946 -2.5096e-007 -1.08658e-006 1.6775e-006 -3.57511 5.93013 1.07545 1.72294e-005 -6.59167e-007 3.00805 -8.02981 -4.95144 -0.697664 -178.055 -1.17184 -1.59658 -180 7.01552e-015 178.944 177.431 7.27656 179.826 4.19982e-007 -4.4788e-006 0.108277 -19.5202 69.1848 20.5746 8.13649 25.2327 -3.48774 -178.568 -1.72021 2.67619 4.54188e-006 -4.6773e-006 -1.0326 -2.36561 -5.12271 0.0321168 3.40799e-006 2.75706e-007 -0.0502653 18.475 67.8856 -19.4347 -8.13649 25.2326 3.48773 
53.062 93.5759 9.37598 -0.836189 -3.27511 -0.663561 0.280795 -0.796909 0.259242 0.562996 2.41012 0.479002 0.557832 4.05512 0.469931 -4.79588 7.1228 -2.23345 7.59805 2.71938 -2.71884 71.0614 -1.12419 -1.98813 96.12 8.8321 19.0511 -4.88719e-007 -2.22184e-007 -5.326e-006 8.05268 0.665493 -0.929249 -1.04998e-005 1.18683e-006 -3.01021 8.0291 -4.95145 0.697677 -75.6618 -0.295416 2.07977 -96.2996 12.5731 -21.4073 -2.5096e-007 -1.08658e-006 1.6775e-006 -3.61163 5.99106 1.08117 1.72294e-005 -6.59167e-007 3.00805 -8.02981 -4.95144 -0.697664 -178.037 -1.14876 -1.61232 -180 7.01552e-015 178.945 177.431 7.25473 179.825 4.19982e-007 -4.4788e-006 0.108232 -19.5088 69.1725 20.5624 8.13649 25.2327 -3.48774 -178.551 -1.66504 2.6699 4.54188e-006 -4.6773e-006 -1.0326 -2.36379 -5.16448 0.0319336 3.40799e-006 2.75706e-007 -0.0504803 18.4881 67.902 -19.4489 -8.13649 25.2326 3.48773 
53.0947 93.5697 9.30192 -0.849744 -3.25186 -0.663325 0.283509 -0.794426 0.25451 0.568404 2.41508 0.470062 0.563354 4.06008 0.460894 -4.78494 7.06083 -2.23217 7.59087 2.74016 -2.7146 71.1366 -1.09956 -1.98383 96.0151 8.96167 19.1432 -4.88719e-007 -2.22184e-007 -5.326e-006 7.99208 0.589916 -0.931253 -1.04998e-005 1.18683e-006 -3.01026 8.0291 -4.95145 0.697677 -75.6002 -0.320768 2.08419 -96.3536 12.6456 -21.3199 -2.5096e-007 -1.08658e-006 1.6775e-006 -3.64822 6.05216 1.08691 1.72294e-005 -6.59167e-007 3.00805 -8.02981 -4.95144 -0.697664 -178.018 -1.12586 -1.62802 -180 7.01552e-015 178.945 177.432 7.23295 179.825 4.19982e-007 -4.4788e-006 0.108186 -19.4973 69.1603 20.5501 8.13649 25.2327 -3.48774 -178.534 -1.61014 2.66356 4.54188e-006 -4.6773e-006 -1.0326 -2.36202 -5.20618 0.0317513 3.40799e-006 2.75706e-007 -0.0507001 18.5012 67.9183 -19.463 -8.13649 25.2326 3.48773 
53.0787 93.5724 9.30578 -0.863307 -3.22906 -0.663284 0.286211 -0.791855 0.249765 0.573789 2.42021 0.46108 0.568853 4.06521 0.451814 -4.77343 6.99865 -2.23078 7.58293 2.76097 -2.71019 71.2123 -1.07519 -1.97972 95.9087 9.09211 19.2377 -4.8872e-007 -2.22184e-007 -5.326e-006 7.92997 0.515595 -0.933513 -1.04998e-005 1.18683e-006 -3.01034 8.0291 -4.95145 0.697677 -75.5384 -0.346172 2.08861 -96.4078 12.7179 -21.2322 -2.5096e-007 -1.08658e-006 1.6775e-006 -3.685 6.11363 1.09267 1.72294e-005 -6.59167e-007 3.00805 -8.02981 -4.95144 -0.697664 -177.999 -1.10341 -1.64363 -180 7.01552e-015 178.946 177.432 7.21135 179.824 4.19982e-007 -4.4788e-006 0.108137 -19.486 69.148 20.538 8.13649 25.2327 -3.48774 -178.517 -1.55591 2.65709 4.54188e-006 -4.6773e-006 -1.0326 -2.36038 -5.24771 0.0315711 3.40799e-006 2.75706e-007 -0.050932 18.5142 67.9345 -19.4771 -8.13649 25.2326 3.48773 
53.0684 93.5816 9.40433 -0.876881 -3.20696 -0.663556 0.288895 -0.789143 0.244996 0.579136 2.42562 0.45203 0.574315 4.07062 0.442668 -4.76098 6.93616 -2.22921 7.57376 2.78182 -2.70548 71.2888 -1.05124 -1.9759 95.8002 9.22403 19.3359 -4.8872e-007 -2.22184e-007 -5.326e-006 7.86545 0.443282 -0.936179 -1.04998e-005 1.18683e-006 -3.01047 8.0291 -4.95145 0.697677 -75.4762 -0.371658 2.09304 -96.4624 12.7898 -21.1442 -2.5096e-007 -1.08658e-006 1.6775e-006 -3.72205 6.17571 1.09849 1.72294e-005 -6.59167e-007 3.00805 -8.02981 -4.95144 -0.697664 -177.981 -1.08167 -1.6591 -180 7.01552e-015 178.947 177.433 7.19001 179.824 4.19982e-007 -4.4788e-006 0.108086 -19.4748 69.1359 20.526 8.13649 25.2327 -3.48774 -178.501 -1.50277 2.65041 4.54188e-006 -4.6773e-006 -1.0326 -2.35895 -5.28897 0.0313944 3.40799e-006 2.75706e-007 -0.0511831 18.5271 67.9506 -19.4911 -8.13649 25.2326 3.48773 
53.0666 93.5779 9.3665 -0.890469 -3.18585 -0.664256 0.291552 -0.786239 0.240195 0.584429 2.43142 0.442887 0.579725 4.07642 0.433429 -4.74727 6.87323 -2.22738 7.56291 2.80272 -2.70038 71.3665 -1.02787 -1.97248 95.689 9.35804 19.4391 -4.8872e-007 -2.22184e-007 -5.326e-006 7.79763 0.373732 -0.939405 -1.04998e-005 1.18683e-006 -3.01066 8.0291 -4.95145 0.697677 -75.4133 -0.397256 2.09749 -96.5173 12.8612 -21.0555 -2.5096e-007 -1.08658e-006 1.6775e-006 -3.75948 6.23862 1.10438 1.72294e-005 -6.59167e-007 3.00805 -8.02981 -4.95144 -0.697664 -177.962 -1.06091 -1.67439 -180 7.01552e-015 178.947 177.433 7.16902 179.823 4.19982e-007 -4.4788e-006 0.108029 -19.4637 69.1239 20.5141 8.13649 25.2327 -3.48774 -178.484 -1.45111 2.64345 4.54188e-006 -4.6773e-006 -1.0326 -2.35781 -5.32985 0.0312224 3.40799e-006 2.75706e-007 -0.0514609 18.5399 67.9665 -19.505 -8.13649 25.2326 3.48773 
53.0503 93.5805 9.36118 -0.904074 -3.16599 -0.665502 0.294176 -0.783089 0.235354 0.589655 2.4377 0.433624 0.585068 4.0827 0.424072 -4.73193 6.80974 -2.22523 7.54993 2.8237 -2.69477 71.4457 -1.00522 -1.96957 95.5743 9.49473 19.5488 -4.88719e-007 -2.22184e-007 -5.326e-006 7.72559 0.307697 -0.943341 -1.04998e-005 1.18683e-006 -3.01093 8.0291 -4.95145 0.697677 -75.3497 -0.422998 2.10196 -96.5728 12.9319 -20.9662 -2.5096e-007 -1.08658e-006 1.6775e-006 -3.7974 6.3026 1.11036 1.72294e-005 -6.59167e-007 3.00805 -8.02981 -4.95144 -0.697664 -177.944 -1.04141 -1.68943 -180 7.01553e-015 178.948 177.434 7.1485 179.823 4.19982e-007 -4.4788e-006 0.107966 -19.4528 69.1121 20.5025 8.13649 25.2327 -3.48774 -178.467 -1.40134 2.63612 4.54188e-006 -4.6773e-006 -1.0326 -2.35704 -5.37026 0.0310564 3.40799e-006 2.75706e-007 -0.0517724 18.5525 67.9822 -19.5186 -8.13649 25.2326 3.48773 
53.0478 93.5867 9.36329 -0.917701 -3.14765 -0.66741 0.29676 -0.77964 0.230464 0.594799 2.44459 0.424218 0.590331 4.08959 0.414573 -4.71463 6.74558 -2.22269 7.53435 2.84477 -2.68854 71.5266 -0.983472 -1.96729 95.4555 9.63468 19.6661 -4.8872e-007 -2.22184e-007 -5.326e-006 7.64844 0.245931 -0.94814 -1.04998e-005 1.18683e-006 -3.0113 8.0291 -4.95145 0.697677 -75.2852 -0.448915 2.10644 -96.6287 13.0018 -20.8761 -2.5096e-007 -1.08658e-006 1.6775e-006 -3.83589 6.36788 1.11645 1.72294e-005 -6.59167e-007 3.00805 -8.02981 -4.95144 -0.697664 -177.925 -1.02342 -1.70417 -180 7.01553e-015 178.948 177.435 7.12852 179.822 4.19982e-007 -4.4788e-006 0.107896 -19.4422 69.1004 20.4911 8.13649 25.2327 -3.48774 -178.45 -1.35387 2.62835 4.54188e-006 -4.6773e-006 -1.0326 -2.35671 -5.41008 0.0308978 3.40799e-006 2.75706e-007 -0.052125 18.5648 67.9977 -19.532 -8.13649 25.2326 3.48773 
